<?xml version="1.0" encoding="UTF-8" standalone="no"?>
<!-- Created with Inkscape (http://www.inkscape.org/) -->

<svg
   xmlns:dc="http://purl.org/dc/elements/1.1/"
   xmlns:cc="http://creativecommons.org/ns#"
   xmlns:rdf="http://www.w3.org/1999/02/22-rdf-syntax-ns#"
   xmlns:svg="http://www.w3.org/2000/svg"
   xmlns="http://www.w3.org/2000/svg"
   xmlns:xlink="http://www.w3.org/1999/xlink"
   xmlns:sodipodi="http://sodipodi.sourceforge.net/DTD/sodipodi-0.dtd"
   xmlns:inkscape="http://www.inkscape.org/namespaces/inkscape"
   width="72.256203mm"
   height="72.257004mm"
   viewBox="0 0 256.0259 256.02876"
   id="svg2"
   version="1.1"
   inkscape:version="0.91 r13725"
   sodipodi:docname="logo.svg">
  <sodipodi:namedview
     id="base"
     pagecolor="#ffffff"
     bordercolor="#666666"
     borderopacity="1.0"
     inkscape:pageopacity="0.0"
     inkscape:pageshadow="2"
     inkscape:zoom="1"
     inkscape:cx="112.37451"
     inkscape:cy="123.50583"
     inkscape:document-units="px"
     inkscape:current-layer="g5237"
     showgrid="false"
     fit-margin-top="0"
     fit-margin-left="0"
     fit-margin-right="0"
     fit-margin-bottom="0"
     inkscape:window-width="1858"
     inkscape:window-height="1053"
     inkscape:window-x="-8"
     inkscape:window-y="-8"
     inkscape:window-maximized="1" />
  <g
     inkscape:label="Calque 1"
     inkscape:groupmode="layer"
     id="layer1"
     transform="translate(-808.67478,297.57416)">
    <g
       id="g5237"
       transform="matrix(0.24002677,0,0,0.24002677,717.50008,-107.35279)">
      <path
         d="m 379.85218,274.16682 1066.65562,0 0,-1066.66748 -1066.65562,0 0,1066.66748 z"
         style="fill:#ed1c24;fill-opacity:1;fill-rule:nonzero;stroke:none"
         id="path6470"
         inkscape:connector-curvature="0" />
      <g
         style="font-variant:normal;font-weight:normal;font-stretch:normal;font-size:83.72451782px;font-family:Gotham;-inkscape-font-specification:Gotham-Book;writing-mode:lr-tb;fill:#ffffff;fill-opacity:1;fill-rule:nonzero;stroke:none"
         id="text6472"
         transform="matrix(2.2853843,0,0,2.2853843,-1173.7873,333.12912)">
        <path
           d="m 742.79527,-285.77997 c 8.205,0 13.3122,-3.34898 17.66587,-8.03756 l -2.84663,-2.51173 c -3.51643,3.7676 -8.03755,6.69796 -14.65179,6.69796 -8.37245,0 -15.99138,-6.19562 -16.74491,-16.82863 l 35.41548,0 c 0.0837,-0.6698 0.0837,-0.92097 0.0837,-1.67449 0,-12.6424 -7.61893,-22.35445 -19.59154,-22.35445 -11.55398,0 -20.26133,9.8795 -20.26133,22.27073 l 0,0.16744 c 0,13.3122 9.71204,22.27073 20.93113,22.27073 z m -16.57746,-24.36384 c 0.75353,-9.46087 7.28404,-16.57745 15.74021,-16.57745 9.79577,0 14.73552,7.95383 15.32159,16.57745 l -31.0618,0 z"
           style="font-style:normal;font-variant:normal;font-weight:300;font-stretch:normal;font-family:Gotham;-inkscape-font-specification:'Gotham Light'"
           id="path5216"
           inkscape:connector-curvature="0" />
        <path
           d="m 769.41962,-286.78467 4.1025,0 0,-24.61501 c 0,-8.62362 6.02817,-15.32158 13.6471,-15.32158 7.61893,0 12.47495,5.44209 12.47495,14.31689 l 0,25.6197 4.1025,0 0,-24.86618 c 0,-9.54459 6.27934,-15.07041 13.47965,-15.07041 7.8701,0 12.6424,5.35837 12.6424,14.56806 l 0,25.36853 4.1025,0 0,-25.87087 c 0,-10.71674 -6.27934,-17.83333 -16.41,-17.83333 -8.03756,0 -12.6424,4.4374 -15.40531,9.2097 -2.34429,-4.93975 -6.94914,-9.2097 -14.40062,-9.2097 -7.61893,0 -11.47026,4.18623 -14.23317,8.62363 l 0,-7.61893 -4.1025,0 0,42.6995 z"
           style="font-style:normal;font-variant:normal;font-weight:300;font-stretch:normal;font-family:Gotham;-inkscape-font-specification:'Gotham Light'"
           id="path5218"
           inkscape:connector-curvature="0" />
      </g>
      <g
         style="font-variant:normal;font-weight:bold;font-stretch:normal;font-size:83.72451782px;font-family:Gotham;-inkscape-font-specification:Gotham-Bold;writing-mode:lr-tb;fill:#ffffff;fill-opacity:1;fill-rule:nonzero;stroke:none"
         id="text6476"
         transform="matrix(2.2853843,0,0,2.2853843,-1173.7873,333.12912)">
        <path
           d="m 723.28746,-214.69789 12.72612,0 0,-61.1189 -12.72612,0 0,61.1189 z"
           id="path5179"
           inkscape:connector-curvature="0" />
        <path
           d="m 753.76315,-201.05079 c 7.61894,0 11.30281,-3.43271 14.73552,-12.55868 l 17.24725,-45.96476 -13.22847,0 -9.79577,30.55945 -10.21439,-30.55945 -13.47965,0 17.58215,45.04379 c -1.08842,2.26056 -2.26056,2.93036 -4.4374,2.93036 -1.67449,0 -3.7676,-0.75352 -5.44209,-1.75822 l -4.26995,9.2097 c 3.26525,1.92566 6.69796,3.09781 11.3028,3.09781 z"
           id="path5181"
           inkscape:connector-curvature="0" />
        <path
           d="m 807.84917,-213.6932 c 13.98199,0 24.36383,-10.46556 24.36383,-23.35914 l 0,-0.16745 c 0,-12.89357 -10.29811,-23.19169 -24.19638,-23.19169 -13.982,0 -24.36384,10.46557 -24.36384,23.35914 l 0,0.16745 c 0,12.89358 10.29812,23.19169 24.19639,23.19169 z m 0.16745,-10.96791 c -7.03286,0 -11.80516,-5.77699 -11.80516,-12.39123 l 0,-0.16745 c 0,-6.61423 4.35367,-12.22378 11.63771,-12.22378 7.03286,0 11.80515,5.777 11.80515,12.39123 l 0,0.16745 c 0,6.61424 -4.35367,12.22378 -11.6377,12.22378 z"
           id="path5183"
           inkscape:connector-curvature="0" />
        <path
           d="m 836.483,-214.69789 12.72613,0 0,-25.03363 c 0,-6.02817 3.0978,-9.12597 7.95383,-9.12597 4.85602,0 7.70265,3.0978 7.70265,9.12597 l 0,25.03363 12.72613,0 0,-29.05241 c 0,-10.29811 -5.60954,-16.66118 -15.23786,-16.66118 -6.44679,0 -10.21439,3.43271 -13.14475,7.20031 l 0,-6.36306 -12.72613,0 0,44.87634 z"
           id="path5185"
           inkscape:connector-curvature="0" />
        <path
           d="m 749.40951,-141.77385 c 10.63301,0 20.42878,-8.20501 20.42878,-23.1917 l 0,-0.16744 c 0,-14.98669 -9.96322,-23.1917 -20.42878,-23.1917 -6.61424,0 -10.88419,3.09781 -13.982,7.28404 l 0,-22.68935 -12.72613,0 0,61.1189 12.72613,0 0,-5.86072 c 3.01408,3.60016 7.20031,6.69797 13.982,6.69797 z m -3.26526,-10.80047 c -5.94444,0 -10.88419,-4.93974 -10.88419,-12.39123 l 0,-0.16744 c 0,-7.45149 4.93975,-12.39123 10.88419,-12.39123 5.94444,0 10.96791,4.93974 10.96791,12.39123 l 0,0.16744 c 0,7.53521 -5.02347,12.39123 -10.96791,12.39123 z"
           id="path5187"
           inkscape:connector-curvature="0" />
        <path
           d="m 789.17863,-141.77385 c 6.44679,0 10.21439,-3.43271 13.14475,-7.20031 l 0,6.36306 12.72612,0 0,-44.87634 -12.72612,0 0,25.03363 c 0,6.02817 -3.09781,9.12597 -7.95383,9.12597 -4.85602,0 -7.70266,-3.0978 -7.70266,-9.12597 l 0,-25.03363 -12.72612,0 0,29.05241 c 0,10.29811 5.60954,16.66118 15.23786,16.66118 z"
           id="path5189"
           inkscape:connector-curvature="0" />
        <path
           d="m 837.23652,-141.77385 c 9.71204,0 17.16352,-4.52113 17.16352,-14.48435 l 0,-0.16744 c 0,-8.20501 -7.28403,-11.21909 -13.56337,-13.3122 -4.85602,-1.67449 -9.12597,-2.84664 -9.12597,-5.35837 l 0,-0.16745 c 0,-1.75822 1.59076,-3.09781 4.68857,-3.09781 3.26526,0 7.70266,1.59077 12.14006,4.18623 l 4.85602,-8.79108 c -4.85602,-3.26525 -11.05164,-5.19092 -16.74491,-5.19092 -9.04224,0 -16.41,5.1072 -16.41,14.23317 l 0,0.16745 c 0,8.70735 7.11658,11.63771 13.39592,13.47965 4.93975,1.50704 9.29342,2.42801 9.29342,5.19092 l 0,0.16745 c 0,2.00939 -1.67449,3.34898 -5.35837,3.34898 -4.18622,0 -9.29342,-1.84194 -14.14944,-5.35837 l -5.44209,8.37245 c 5.94444,4.68857 12.9773,6.78169 19.25664,6.78169 z"
           id="path5191"
           inkscape:connector-curvature="0" />
        <path
           d="m 858.83745,-192.42719 13.39592,0 0,-11.30281 -13.39592,0 0,11.30281 z m 0.33489,49.81609 12.72613,0 0,-44.87634 -12.72613,0 0,44.87634 z"
           id="path5193"
           inkscape:connector-curvature="0" />
        <path
           d="m 878.9313,-142.6111 12.72613,0 0,-25.03363 c 0,-6.02817 3.09781,-9.12597 7.95383,-9.12597 4.85602,0 7.70266,3.0978 7.70266,9.12597 l 0,25.03363 12.72612,0 0,-29.05241 c 0,-10.29811 -5.60954,-16.66118 -15.23786,-16.66118 -6.44679,0 -10.21439,3.43271 -13.14475,7.20031 l 0,-6.36306 -12.72613,0 0,44.87634 z"
           id="path5195"
           inkscape:connector-curvature="0" />
        <path
           d="m 947.41797,-141.60641 c 8.12128,0 14.14945,-3.18153 18.33567,-8.37245 l -7.28403,-6.44678 c -3.51643,3.26525 -6.61424,4.60484 -10.88419,4.60484 -5.69326,0 -9.71204,-3.01408 -10.96791,-8.79107 l 31.22925,0 c 0.0837,-1.17214 0.16745,-2.34429 0.16745,-3.34898 0,-12.72613 -6.86542,-24.36384 -21.8521,-24.36384 -13.06103,0 -22.187,10.54929 -22.187,23.35914 l 0,0.16745 c 0,13.73082 9.96322,23.19169 23.44286,23.19169 z m -10.96791,-26.95929 c 1.0047,-5.77699 4.4374,-9.54459 9.71205,-9.54459 5.35837,0 8.70735,3.85132 9.46087,9.54459 l -19.17292,0 z"
           id="path5197"
           inkscape:connector-curvature="0" />
        <path
           d="m 988.27552,-141.77385 c 9.71204,0 17.16348,-4.52113 17.16348,-14.48435 l 0,-0.16744 c 0,-8.20501 -7.28399,-11.21909 -13.56333,-13.3122 -4.85602,-1.67449 -9.12597,-2.84664 -9.12597,-5.35837 l 0,-0.16745 c 0,-1.75822 1.59077,-3.09781 4.68857,-3.09781 3.26526,0 7.70266,1.59077 12.14006,4.18623 l 4.85597,-8.79108 c -4.85597,-3.26525 -11.05159,-5.19092 -16.74485,-5.19092 -9.04225,0 -16.41001,5.1072 -16.41001,14.23317 l 0,0.16745 c 0,8.70735 7.11658,11.63771 13.39592,13.47965 4.93975,1.50704 9.29342,2.42801 9.29342,5.19092 l 0,0.16745 c 0,2.00939 -1.67449,3.34898 -5.35836,3.34898 -4.18623,0 -9.29343,-1.84194 -14.14945,-5.35837 l -5.44209,8.37245 c 5.94444,4.68857 12.9773,6.78169 19.25664,6.78169 z"
           id="path5199"
           inkscape:connector-curvature="0" />
        <path
           d="m 1024.4445,-141.77385 c 9.712,0 17.1635,-4.52113 17.1635,-14.48435 l 0,-0.16744 c 0,-8.20501 -7.284,-11.21909 -13.5634,-13.3122 -4.856,-1.67449 -9.126,-2.84664 -9.126,-5.35837 l 0,-0.16745 c 0,-1.75822 1.5908,-3.09781 4.6886,-3.09781 3.2653,0 7.7027,1.59077 12.1401,4.18623 l 4.856,-8.79108 c -4.856,-3.26525 -11.0516,-5.19092 -16.7449,-5.19092 -9.0423,0 -16.41,5.1072 -16.41,14.23317 l 0,0.16745 c 0,8.70735 7.1166,11.63771 13.3959,13.47965 4.9398,1.50704 9.2934,2.42801 9.2934,5.19092 l 0,0.16745 c 0,2.00939 -1.6745,3.34898 -5.3583,3.34898 -4.1863,0 -9.2935,-1.84194 -14.1495,-5.35837 l -5.4421,8.37245 c 5.9445,4.68857 12.9773,6.78169 19.2567,6.78169 z"
           id="path5201"
           inkscape:connector-curvature="0" />
        <path
           d="m 738.44159,-69.687054 c 9.71205,0 17.16353,-4.521124 17.16353,-14.484342 l 0,-0.167449 c 0,-8.205003 -7.28403,-11.219085 -13.56337,-13.312198 -4.85602,-1.674491 -9.12597,-2.846637 -9.12597,-5.358367 l 0,-0.16745 c 0,-1.75822 1.59076,-3.09781 4.68857,-3.09781 3.26526,0 7.70265,1.59077 12.14005,4.18623 l 4.85603,-8.79108 c -4.85603,-3.26525 -11.05164,-5.19092 -16.74491,-5.19092 -9.04225,0 -16.41,5.1072 -16.41,14.23317 l 0,0.16745 c 0,8.70735 7.11658,11.637708 13.39592,13.479647 4.93975,1.507041 9.29342,2.428011 9.29342,5.19092 l 0,0.167449 c 0,2.009389 -1.67449,3.348981 -5.35837,3.348981 -4.18622,0 -9.29342,-1.841939 -14.14944,-5.358369 l -5.44209,8.372452 c 5.94444,4.688573 12.9773,6.781686 19.25663,6.781686 z"
           id="path5203"
           inkscape:connector-curvature="0" />
        <path
           d="m 780.97365,-69.519605 c 8.95853,0 13.982,-3.432706 18.33567,-8.205003 l -7.45148,-7.535207 c -3.09781,2.930358 -6.02816,4.772298 -10.29811,4.772298 -6.94914,0 -11.38654,-5.525818 -11.38654,-12.391229 l 0,-0.167449 c 0,-6.614237 4.52112,-12.223775 10.88419,-12.223775 4.52112,0 7.36776,1.92566 10.21439,4.93974 l 7.78638,-8.37245 c -4.18623,-4.68857 -9.46087,-7.53521 -17.91705,-7.53521 -13.73082,0 -23.52659,10.54929 -23.52659,23.359144 l 0,0.167449 c 0,12.809851 9.8795,23.191692 23.35914,23.191692 z"
           id="path5205"
           inkscape:connector-curvature="0" />
        <path
           d="m 802.65829,-70.5243 12.72613,0 0,-25.03363 c 0,-6.02817 3.09781,-9.12597 7.95383,-9.12597 4.85602,0 7.70266,3.0978 7.70266,9.12597 l 0,25.03363 12.72612,0 0,-29.052407 c 0,-10.298113 -5.60954,-16.661183 -15.23786,-16.661183 -6.44679,0 -10.21439,3.43271 -13.14475,7.20031 l 0,-22.60562 -12.72613,0 0,61.1189 z"
           id="path5207"
           inkscape:connector-curvature="0" />
        <path
           d="m 871.89848,-69.519605 c 13.982,0 24.36384,-10.465565 24.36384,-23.359141 l 0,-0.167449 c 0,-12.893575 -10.29812,-23.191695 -24.19639,-23.191695 -13.98199,0 -24.36383,10.46557 -24.36383,23.359144 l 0,0.167449 c 0,12.893576 10.29811,23.191692 24.19638,23.191692 z m 0.16745,-10.967912 c -7.03286,0 -11.80515,-5.776992 -11.80515,-12.391229 l 0,-0.167449 c 0,-6.614237 4.35367,-12.223775 11.6377,-12.223775 7.03286,0 11.80516,5.776987 11.80516,12.391224 l 0,0.167449 c 0,6.614237 -4.35367,12.22378 -11.63771,12.22378 z"
           id="path5209"
           inkscape:connector-curvature="0" />
        <path
           d="m 922.5518,-69.519605 c 13.982,0 24.36384,-10.465565 24.36384,-23.359141 l 0,-0.167449 c 0,-12.893575 -10.29812,-23.191695 -24.19639,-23.191695 -13.98199,0 -24.36383,10.46557 -24.36383,23.359144 l 0,0.167449 c 0,12.893576 10.29811,23.191692 24.19638,23.191692 z m 0.16745,-10.967912 c -7.03286,0 -11.80515,-5.776992 -11.80515,-12.391229 l 0,-0.167449 c 0,-6.614237 4.35367,-12.223775 11.6377,-12.223775 7.03286,0 11.80516,5.776987 11.80516,12.391224 l 0,0.167449 c 0,6.614237 -4.35367,12.22378 -11.63771,12.22378 z"
           id="path5211"
           inkscape:connector-curvature="0" />
        <path
           d="m 951.77165,-70.5243 12.72613,0 0,-61.1189 -12.72613,0 0,61.1189 z"
           id="path5213"
           inkscape:connector-curvature="0" />
      </g>
    </g>
  </g>
</svg>